<?xml version="1.0" encoding="UTF-8" standalone="no"?>
<svg
   version="1.1"
   width="161"
   height="161"
   id="svg15"
   sodipodi:docname="applications.svg"
   inkscape:version="1.4 (e7c3feb100, 2024-10-09)"
   xmlns:inkscape="http://www.inkscape.org/namespaces/inkscape"
   xmlns:sodipodi="http://sodipodi.sourceforge.net/DTD/sodipodi-0.dtd"
   xmlns="http://www.w3.org/2000/svg"
   xmlns:svg="http://www.w3.org/2000/svg">
  <defs
     id="defs15" />
  <sodipodi:namedview
     id="namedview15"
     pagecolor="#ffffff"
     bordercolor="#000000"
     borderopacity="0.25"
     inkscape:showpageshadow="2"
     inkscape:pageopacity="0.0"
     inkscape:pagecheckerboard="0"
     inkscape:deskcolor="#d1d1d1"
     inkscape:zoom="4.1304348"
     inkscape:cx="80.5"
     inkscape:cy="80.5"
     inkscape:window-width="1718"
     inkscape:window-height="869"
     inkscape:window-x="0"
     inkscape:window-y="0"
     inkscape:window-maximized="1"
     inkscape:current-layer="svg15" />
  <rect
     x="102.67"
     y="19"
     fill="#777777"
     stroke="#000000"
     stroke-width="3"
     width="36.67"
     height="8"
     id="rect1" />
  <rect
     x="98.67"
     y="60"
     fill="#777777"
     stroke="#000000"
     stroke-width="3"
     width="42.31"
     height="8"
     id="rect2" />
  <rect
     x="94.67"
     y="99"
     fill="#777777"
     stroke="#000000"
     stroke-width="3"
     width="50.9"
     height="8"
     id="rect3" />
  <polygon
     fill="#404040"
     points="151.64,126.87 144.6,126.87 132.03,27.19 139.07,27.19"
     id="polygon3" />
  <polygon
     fill="#777777"
     points="148.1,127.17 144.6,126.87 132.03,27.19 135.53,27.48"
     id="polygon4" />
  <polygon
     fill="none"
     stroke="#000000"
     stroke-width="3"
     points="151.64,126.87 144.6,126.87 132.03,27.19 139.07,27.19"
     id="polygon5" />
  <polygon
     fill="#404040"
     points="90.86,126.87 97.9,126.87 110.47,27.19 103.43,27.19"
     id="polygon6" />
  <polygon
     fill="#777777"
     points="90.86,126.87 94.9,126.87 107.47,27.19 103.43,27.19"
     id="polygon7" />
  <polygon
     fill="none"
     stroke="#000000"
     stroke-width="3"
     points="90.86,126.87 97.9,126.87 110.47,27.19 103.43,27.19"
     id="polygon8" />
  <path
     fill="#404040"
     stroke="#404040"
     d="M154.18,121.94h-5.24c0,0,0.98,24.81-4.89,24.81c-5.87,0-44.99,0-50.86,0c-4.33,0-4.93-13.47-4.95-20.56c-0.02,8.28,0.51,25.81,5.38,25.81c6.38,0,48.87,0,55.24,0C155.25,152,154.18,121.94,154.18,121.94z"
     id="path8" />
  <path
     fill="#777777"
     stroke="#777777"
     d="M93.2,146.75c5.87,0,44.99,0,50.86,0c5.87,0,4.89-24.81,4.89-24.81H88.32h-0.01c0,0-0.07,1.72-0.06,4.25C88.27,133.27,88.88,146.75,93.2,146.75z"
     id="path9" />
  <path
     fill="none"
     stroke="#000000"
     stroke-width="3.5"
     d="M93.63,152c6.38,0,48.87,0,55.24,0c6.37,0,5.31-30.06,5.31-30.06H88.32C88.32,121.94,87.25,152,93.63,152z"
     id="path10" />
  <rect
     x="118.5"
     y="23"
     fill="#777777"
     stroke="#000000"
     stroke-width="2"
     width="7"
     height="80"
     id="rect10" />
  <path
     fill="#FFFFFF"
     d="M91.57,137.06c-1.31-13.13-1.31-13.43,24.89-11.81C91.57,127.16,93.48,125.55,91.57,137.06z"
     id="path11" />
  <linearGradient
     id="paint"
     gradientUnits="userSpaceOnUse"
     x1="14.5"
     y1="99"
     x2="119.5"
     y2="99">
    <stop
       offset="0"
       style="stop-color:#185888"
       id="stop11" />
    <stop
       offset="0.33"
       style="stop-color:#2D55B4"
       id="stop12" />
    <stop
       offset="0.66"
       style="stop-color:#5050FF"
       id="stop13" />
    <stop
       offset="1"
       style="stop-color:#105080"
       id="stop14" />
  </linearGradient>
  <path
     fill="url(#paint)"
     stroke="#000000"
     stroke-width="6"
     d="M67.35,13.97c-13.99,13.43-51.85,0-51.85,0V60.6v47.93c0,0,37.86,13.43,51.85,0c14-13.43,53.15,0,53.15,0V60.6V13.97C120.5,13.97,81.35,0.54,67.35,13.97z"
     id="path14" />
</svg>
