<?xml version="1.0" encoding="UTF-8" standalone="no"?>
<svg
   width="16"
   height="16"
   version="1.1"
   id="svg2"
   sodipodi:docname="system-software-install-symbolic.svg"
   xml:space="preserve"
   inkscape:version="1.4 (e7c3feb100, 2024-10-09)"
   xmlns:inkscape="http://www.inkscape.org/namespaces/inkscape"
   xmlns:sodipodi="http://sodipodi.sourceforge.net/DTD/sodipodi-0.dtd"
   xmlns="http://www.w3.org/2000/svg"
   xmlns:svg="http://www.w3.org/2000/svg"><defs
     id="defs2" /><sodipodi:namedview
     id="namedview2"
     pagecolor="#ffffff"
     bordercolor="#000000"
     borderopacity="0.25"
     inkscape:showpageshadow="2"
     inkscape:pageopacity="0.0"
     inkscape:pagecheckerboard="0"
     inkscape:deskcolor="#d1d1d1"
     inkscape:zoom="51.625"
     inkscape:cx="8.125908"
     inkscape:cy="8.0096852"
     inkscape:window-width="1718"
     inkscape:window-height="869"
     inkscape:window-x="0"
     inkscape:window-y="0"
     inkscape:window-maximized="1"
     inkscape:current-layer="svg2" /><g
     fill="#474747"
     id="g2"
     style="fill:#9141ac;fill-opacity:1"><path
       d="M3 8h10v7.059c0 .492-.472.937-.996.937H4c-.539 0-1-.43-1-1z"
       style="marker:none;fill:#9141ac;fill-opacity:1"
       color="#bebebe"
       overflow="visible"
       id="path1" /><path
       d="M6.793 2.969a1 1 0 00-.752.379L3.225 6.807a1 1 0 00-.225.63v1a1 1 0 102 0v-.644L7.592 4.61a1 1 0 00-.799-1.642zm2.213 3.004a1 1 0 00-.144 1.988l2.17.379v.16a1 1 0 102 0v-1a1 1 0 00-.828-.984L9.205 5.99a1 1 0 00-.199-.017z"
       style="line-height:normal;font-variant-ligatures:normal;font-variant-position:normal;font-variant-caps:normal;font-variant-numeric:normal;font-variant-alternates:normal;font-feature-settings:normal;text-indent:0;text-align:start;text-decoration-line:none;text-decoration-style:solid;text-decoration-color:#000;text-transform:none;text-orientation:mixed;shape-padding:0;isolation:auto;mix-blend-mode:normal;fill:#9141ac;fill-opacity:1"
       color="#000"
       font-weight="400"
       font-family="sans-serif"
       overflow="visible"
       id="path2" /></g></svg>
