<?xml version="1.0" encoding="UTF-8" standalone="no"?>
<svg
   height="128px"
   viewBox="0 0 128 128"
   width="128px"
   version="1.1"
   id="svg8"
   sodipodi:docname="folder.svg"
   xml:space="preserve"
   inkscape:version="1.4 (e7c3feb100, 2024-10-09)"
   xmlns:inkscape="http://www.inkscape.org/namespaces/inkscape"
   xmlns:sodipodi="http://sodipodi.sourceforge.net/DTD/sodipodi-0.dtd"
   xmlns:xlink="http://www.w3.org/1999/xlink"
   xmlns="http://www.w3.org/2000/svg"
   xmlns:svg="http://www.w3.org/2000/svg"><defs
     id="defs8"><linearGradient
       id="linearGradient5"
       inkscape:collect="always"><stop
         style="stop-color:#d56199;stop-opacity:1;"
         offset="0"
         id="stop7" /><stop
         style="stop-color:#dc659f;stop-opacity:1;"
         offset="0.5"
         id="stop9" /><stop
         style="stop-color:#9141ac;stop-opacity:1;"
         offset="1"
         id="stop8" /></linearGradient><linearGradient
       id="linearGradient1"
       inkscape:collect="always"><stop
         style="stop-color:#9141ac;stop-opacity:1;"
         offset="0"
         id="stop2" /><stop
         style="stop-color:#9141ac;stop-opacity:0.49803922;"
         offset="0.5"
         id="stop4" /><stop
         style="stop-color:#d56199;stop-opacity:0.50259066;"
         offset="1"
         id="stop3" /></linearGradient><linearGradient
       inkscape:collect="always"
       xlink:href="#linearGradient1"
       id="linearGradient3"
       x1="12"
       y1="12"
       x2="116"
       y2="118.03125"
       gradientUnits="userSpaceOnUse" /><linearGradient
       id="a-3"
       gradientTransform="matrix(0.45451,0,0,0.455522,-1210.2921,616.17261)"
       gradientUnits="userSpaceOnUse"
       x1="2689.252"
       x2="2918.0698"
       y1="-1106.803"
       y2="-1106.803"><stop
         offset="0"
         stop-color="#62a0ea"
         id="stop1-5"
         style="stop-color:#c862ea;stop-opacity:1;" /><stop
         offset="0.0576991"
         stop-color="#afd4ff"
         id="stop2-0"
         style="stop-color:#ebafff;stop-opacity:1;" /><stop
         offset="0.122204"
         stop-color="#62a0ea"
         id="stop3-6"
         style="stop-color:#c862ea;stop-opacity:1;" /><stop
         offset="0.87330598"
         stop-color="#62a0ea"
         id="stop4-4"
         style="stop-color:#c862ea;stop-opacity:1;" /><stop
         offset="0.95599699"
         stop-color="#c0d5ea"
         id="stop5"
         style="stop-color:#e0c0ea;stop-opacity:1;" /><stop
         offset="1"
         stop-color="#62a0ea"
         id="stop6-5"
         style="stop-color:#c862ea;stop-opacity:1;" /></linearGradient><linearGradient
       inkscape:collect="always"
       xlink:href="#linearGradient5"
       id="linearGradient8"
       x1="12"
       y1="32"
       x2="116"
       y2="115.97656"
       gradientUnits="userSpaceOnUse" /></defs><sodipodi:namedview
     id="namedview8"
     pagecolor="#ffffff"
     bordercolor="#666666"
     borderopacity="1.0"
     inkscape:showpageshadow="2"
     inkscape:pageopacity="0.0"
     inkscape:pagecheckerboard="0"
     inkscape:deskcolor="#d1d1d1"
     inkscape:zoom="4.9663203"
     inkscape:cx="56.178415"
     inkscape:cy="63.729277"
     inkscape:window-width="1718"
     inkscape:window-height="869"
     inkscape:window-x="0"
     inkscape:window-y="0"
     inkscape:window-maximized="1"
     inkscape:current-layer="svg8" /><linearGradient
     id="a"
     gradientTransform="matrix(0.45451 0 0 0.455522 -1210.292114 616.172607)"
     gradientUnits="userSpaceOnUse"
     x1="2689.251953"
     x2="2918.069824"
     y1="-1106.802979"
     y2="-1106.802979"><stop
       offset="0"
       stop-color="#62a0ea"
       id="stop1"
       style="stop-color:#c862ea;stop-opacity:1;" /><stop
       offset="1"
       stop-color="#62a0ea"
       id="stop6"
       style="stop-color:#c862ea;stop-opacity:1;" /></linearGradient><path
     d="M 21.976562,12 C 16.449219,12 12,16.460938 12,22 v 86.03125 c 0,5.54297 4.449219,10 9.976562,10 h 84.042968 c 5.53125,0 9.98047,-4.45703 9.98047,-10 V 35.945312 c 0,-6.628906 -5.35937,-12 -11.97266,-12 H 58 c -2.453125,0 -4.695312,-1.386718 -5.796875,-3.582031 L 50.699219,17.371094 C 49.042969,14.078125 45.679688,12 42,12 Z m 0,0"
     fill="#438de6"
     id="path6-3"
     style="fill:#080809;fill-opacity:1" /><path
     id="path6"
     style="fill:url(#linearGradient3);fill-opacity:1"
     d="M 21.976562 12 C 16.449225 12 12 16.460944 12 22 L 12 50 L 12 105.97656 L 12 108.03125 C 12 113.57421 16.449225 118.03125 21.976562 118.03125 L 106.01953 118.03125 C 111.55078 118.03125 116 113.57421 116 108.03125 L 116 46 L 116 42 L 116 35.945312 C 116 29.316413 110.64062 23.945312 104.02734 23.945312 L 58 23.945312 C 55.546877 23.945312 53.304687 22.558592 52.203125 20.363281 L 50.699219 17.371094 C 49.04297 14.078128 45.679684 12 42 12 L 21.976562 12 z " /><path
     d="M 65.976562,36 C 63.230469,36 60.75,37.101562 58.949219,38.890625 56.675781,41.144531 53.566406,44 50.316406,44 H 21.976562 C 16.449219,44 12,48.460938 12,54 v 54.03125 c 0,5.54297 4.449219,10 9.976562,10 h 84.042968 c 5.53125,0 9.98047,-4.45703 9.98047,-10 V 46 c 0,-5.539062 -4.44922,-10 -9.98047,-10 z m 0,0"
     fill="url(#a)"
     id="path7"
     style="fill:url(#a-3)" /><path
     d="M 65.976562,32 C 63.230469,32 60.75,33.101562 58.949219,34.890625 56.675781,37.144531 53.566406,40 50.316406,40 H 21.976562 C 16.449219,40 12,44.460938 12,50 v 55.97656 c 0,5.53907 4.449219,10 9.976562,10 h 84.042968 c 5.53125,0 9.98047,-4.46093 9.98047,-10 V 42 c 0,-5.539062 -4.44922,-10 -9.98047,-10 z m 0,0"
     fill="#a4caee"
     id="path8"
     style="fill:url(#linearGradient8);fill-opacity:1" /></svg>
